<?xml version="1.0" standalone="no"?>
<!DOCTYPE svg PUBLIC "-//W3C//DTD SVG 20010904//EN"
 "http://www.w3.org/TR/2001/REC-SVG-20010904/DTD/svg10.dtd">
<svg version="1.0" xmlns="http://www.w3.org/2000/svg"
 width="400.000000pt" height="400.000000pt" viewBox="0 0 400.000000 400.000000"
 preserveAspectRatio="xMidYMid meet">
<metadata>
Created by potrace 1.11, written by Peter Selinger 2001-2013
</metadata>
<g transform="translate(0.000000,400.000000) scale(0.100000,-0.100000)"
fill="#000000" stroke="none">
<path d="M0 2000 l0 -2000 2000 0 2000 0 0 2000 0 2000 -2000 0 -2000 0 0
-2000z m2398 1388 c11 -18 33 -58 49 -88 78 -144 211 -385 264 -481 l59 -106
-24 -44 c-13 -24 -74 -136 -136 -249 -62 -113 -124 -225 -137 -250 -14 -25
-41 -73 -60 -107 l-35 -63 -388 0 -388 0 -115 208 c-203 369 -270 495 -270
506 0 6 51 103 113 216 62 113 139 255 173 315 33 61 69 125 79 143 l20 32
388 0 388 0 20 -32z m-964 -1914 c64 -122 116 -224 116 -228 0 -3 -28 -6 -62
-6 -59 0 -64 2 -80 30 -17 30 -18 30 -102 30 -85 0 -86 0 -101 -30 -15 -29
-18 -30 -81 -30 l-66 0 95 183 c52 100 107 206 122 236 15 30 30 50 35 45 5
-5 61 -109 124 -230z m759 112 l142 -114 3 109 3 109 59 0 60 0 0 -236 c0
-188 -3 -234 -12 -226 -7 6 -71 58 -143 116 l-130 106 -3 -106 -3 -105 -62 3
-62 3 -3 228 c-1 125 0 227 3 227 3 0 70 -51 148 -114z m747 -29 l105 -85 5
106 5 107 58 3 57 3 0 -236 0 -236 -142 116 -143 115 -3 -105 -3 -106 -62 3
-62 3 -3 215 c-1 118 0 221 3 228 4 10 15 6 43 -17 20 -16 84 -68 142 -114z
m-2478 -34 l3 -168 83 -3 82 -3 0 -54 0 -55 -145 0 -145 0 0 225 0 225 60 0
60 0 2 -167z m558 107 l0 -60 -100 0 -100 0 0 -25 c0 -25 0 -25 95 -25 l95 0
0 -55 0 -55 -95 0 -95 0 0 -30 0 -30 105 0 105 0 0 -55 0 -55 -170 0 -170 0 0
218 c0 120 3 222 7 225 3 4 78 7 165 7 l158 0 0 -60z m860 34 c19 -11 45 -35
57 -54 40 -58 26 -156 -28 -193 -21 -15 -20 -16 30 -88 28 -40 51 -76 51 -81
0 -4 -30 -8 -68 -8 l-67 0 -45 68 c-61 91 -82 92 -84 2 l-1 -65 -62 -3 -63 -3
0 227 0 226 123 -3 c101 -3 128 -8 157 -25z m788 -201 l2 -223 -65 0 -65 0 0
218 c0 120 3 222 7 226 4 4 32 6 63 4 l55 -3 3 -222z m907 213 c34 -15 35 -16
35 -76 l0 -61 -31 16 c-79 41 -173 25 -204 -35 -26 -50 -20 -97 19 -136 29
-29 41 -34 81 -34 56 0 85 14 85 40 0 18 -7 20 -55 20 l-55 0 0 50 0 50 114 0
114 0 1 -84 c1 -77 -1 -87 -25 -116 -44 -51 -99 -74 -179 -74 -77 0 -128 20
-179 70 -108 109 -74 294 67 360 61 28 157 32 212 10z m-2085 -601 c0 -25 0
-25 -95 -25 l-95 0 0 -70 0 -69 88 -3 c87 -3 87 -3 90 -30 l3 -28 -90 0 -91 0
0 -111 0 -110 -27 3 -28 3 -3 233 -2 232 125 0 125 0 0 -25z m170 -144 c0 -93
4 -181 10 -195 18 -48 105 -71 165 -44 48 22 55 51 55 238 l0 170 30 0 30 0 0
-176 c0 -202 -7 -229 -72 -272 -51 -33 -146 -36 -198 -6 -71 41 -75 54 -78
265 l-3 189 30 0 31 0 0 -169z m740 164 c0 -10 -142 -205 -150 -205 -4 0 -12
6 -18 13 -8 9 0 29 34 77 24 35 44 67 44 72 0 4 -52 8 -115 8 -108 0 -115 1
-115 20 0 19 7 20 160 20 88 0 160 -2 160 -5z m370 -20 l0 -25 -105 0 -105 0
0 -70 0 -70 101 0 100 0 -3 -27 -3 -28 -97 -3 -98 -3 0 -79 0 -79 108 -3 c107
-3 107 -3 107 -28 l0 -25 -135 0 -135 0 -3 233 -2 232 135 0 135 0 0 -25z
m-574 -256 c3 -6 -12 -37 -35 -70 -22 -32 -41 -60 -41 -64 0 -3 63 -5 140 -5
133 0 140 -1 140 -20 0 -19 -7 -20 -186 -20 l-185 0 22 33 c105 151 127 174
145 146z"/>
<path d="M1531 3228 c-46 -84 -129 -235 -183 -335 l-100 -183 184 -335 183
-334 370 -1 370 0 70 128 c38 70 120 219 182 331 62 112 113 207 113 211 0 6
-58 113 -313 578 l-51 92 -370 0 -371 0 -84 -152z m356 -125 c98 -58 180 -108
182 -110 3 -2 -4 -21 -15 -43 l-19 -39 -187 112 c-103 62 -187 114 -188 117 0
8 39 70 44 70 3 0 85 -48 183 -107z m173 -305 c371 -224 410 -249 410 -255 0
-11 -31 -63 -38 -63 -5 0 -12 4 -17 9 -10 9 -237 148 -555 339 -96 58 -176
106 -178 107 -2 2 4 17 13 35 12 22 21 30 33 25 9 -3 158 -92 332 -197z m163
95 c51 -31 129 -78 175 -106 45 -27 82 -53 82 -58 0 -15 -23 -59 -31 -59 -18
0 -341 196 -353 214 -7 9 -4 23 7 40 10 14 20 26 23 26 2 0 46 -25 97 -57z
m-275 -188 c89 -54 162 -103 162 -109 0 -9 -17 -40 -36 -65 -2 -2 -86 47 -188
109 l-186 112 21 40 c19 37 21 39 42 25 12 -7 95 -58 185 -112z m-213 -60
c127 -76 234 -141 238 -145 13 -11 -22 -73 -37 -67 -8 3 -89 51 -182 108 -93
56 -196 118 -229 138 -33 19 -61 36 -63 37 -5 3 31 73 37 70 3 -1 110 -65 236
-141z m439 -271 c70 -41 126 -81 126 -87 0 -7 -8 -22 -18 -34 l-17 -23 -110
66 c-172 103 -157 89 -137 124 9 16 20 30 24 30 4 0 63 -34 132 -76z"/>
<path d="M1287 1445 c-9 -20 -17 -38 -17 -40 0 -3 18 -5 40 -5 l40 0 -20 40
c-11 22 -22 40 -23 40 -2 0 -11 -16 -20 -35z"/>
<path d="M1723 1525 l2 -45 47 0 c56 0 78 25 59 66 -9 21 -18 24 -60 24 l-50
0 2 -45z"/>
</g>
</svg>
